# xmcd CD database file
#
# Track frame offsets:
#	150
#	20949
#	40369
#	57190
#	74508
#	93978
#	111928
#	131065
#	154911
#	174624
#	191327
#	208331
#	223138
#
# Disc length: 3277 seconds
#
# Revision: 0
# Processed by: cddbd v1.4PL0 Copyright (c) Steve Scherf et al.
# Submitted via: CDex 1.50
#
DISCID=cd0ccb0d
DTITLE=Frank and Walters - Beauty Becomes More Than Life
DYEAR=1999
DGENRE=Power Pop
TTITLE0=Plenty Times
TTITLE1=Stop
TTITLE2=Woman
TTITLE3=Simple Times
TTITLE4=7:30
TTITLE5=Let Me Know
TTITLE6=Something Happened To Me
TTITLE7=Time We Said Goodnight
TTITLE8=Today
TTITLE9=Take Me Through This Life
TTITLE10=Don't Stop
TTITLE11=Castaway
TTITLE12=Until the End
EXTD=YEAR: 1999
EXTT0=
EXTT1=
EXTT2=
EXTT3=
EXTT4=
EXTT5=
EXTT6=
EXTT7=
EXTT8=
EXTT9=
EXTT10=
EXTT11=
EXTT12=
PLAYORDER=
